<svg width="142" height="61" viewBox="0 0 142 61" fill="none" xmlns="http://www.w3.org/2000/svg">
    <path d="M2.36719 39V9.90909H14.924C17.0831 9.90909 18.9723 10.3021 20.5916 11.0881C22.2109 11.8741 23.4704 13.0057 24.37 14.483C25.2696 15.9602 25.7195 17.7311 25.7195 19.7955C25.7195 21.8788 25.2554 23.6354 24.3274 25.0653C23.4089 26.4953 22.1162 27.5748 20.4496 28.304C18.7924 29.0331 16.8558 29.3977 14.6399 29.3977H7.13991V23.2614H13.049C13.977 23.2614 14.7678 23.1477 15.4212 22.9205C16.084 22.6837 16.5907 22.3097 16.9411 21.7983C17.3009 21.2869 17.4808 20.6193 17.4808 19.7955C17.4808 18.9621 17.3009 18.285 16.9411 17.7642C16.5907 17.2339 16.084 16.8456 15.4212 16.5994C14.7678 16.3437 13.977 16.2159 13.049 16.2159H10.2649V39H2.36719ZM19.4126 25.6477L26.6854 39H18.1058L11.0036 25.6477H19.4126ZM57.2678 24.4545C57.2678 27.6932 56.638 30.4252 55.3786 32.6506C54.1191 34.8665 52.4193 36.5473 50.2791 37.6932C48.139 38.8295 45.7526 39.3977 43.12 39.3977C40.4685 39.3977 38.0727 38.8248 35.9325 37.679C33.8018 36.5237 32.1068 34.8381 30.8473 32.6222C29.5973 30.3968 28.9723 27.6742 28.9723 24.4545C28.9723 21.2159 29.5973 18.4886 30.8473 16.2727C32.1068 14.0473 33.8018 12.3665 35.9325 11.2301C38.0727 10.0843 40.4685 9.51136 43.12 9.51136C45.7526 9.51136 48.139 10.0843 50.2791 11.2301C52.4193 12.3665 54.1191 14.0473 55.3786 16.2727C56.638 18.4886 57.2678 21.2159 57.2678 24.4545ZM49.1428 24.4545C49.1428 22.7121 48.9107 21.2443 48.4467 20.0511C47.9922 18.8485 47.3151 17.9394 46.4155 17.3239C45.5253 16.6989 44.4268 16.3864 43.12 16.3864C41.8132 16.3864 40.71 16.6989 39.8104 17.3239C38.9202 17.9394 38.2431 18.8485 37.7791 20.0511C37.3246 21.2443 37.0973 22.7121 37.0973 24.4545C37.0973 26.197 37.3246 27.6695 37.7791 28.8722C38.2431 30.0653 38.9202 30.9744 39.8104 31.5994C40.71 32.215 41.8132 32.5227 43.12 32.5227C44.4268 32.5227 45.5253 32.215 46.4155 31.5994C47.3151 30.9744 47.9922 30.0653 48.4467 28.8722C48.9107 27.6695 49.1428 26.197 49.1428 24.4545ZM66.4723 39L57.8928 9.90909H66.6996L70.6768 27.8068H70.9041L75.62 9.90909H82.5518L87.2678 27.8636H87.495L91.4723 9.90909H100.279L91.6996 39H84.1428L79.1996 22.75H78.9723L74.0291 39H66.4723ZM110.734 9.90909V39H102.836V9.90909H110.734ZM139.647 9.90909V39H133.056L122.545 23.7159H122.374V39H114.477V9.90909H121.181L131.522 25.1364H131.749V9.90909H139.647ZM5.83842 46.0909L8.07564 53.7827H8.16087L10.3981 46.0909H13.7433L10.1424 57H6.09411L2.49325 46.0909H5.83842ZM15.8406 57H12.6446L16.2455 46.0909H20.2938L23.8946 57H20.6986L18.3122 49.0952H18.227L15.8406 57ZM15.2441 52.696H21.2526V54.9119H15.2441V52.696ZM34.3842 46.0909V57H31.9126L27.9709 51.2685H27.907V57H24.9453V46.0909H27.4595L31.3374 51.8011H31.4226V46.0909H34.3842ZM41.6072 57H38.4112L42.0121 46.0909H46.0604L49.6612 57H46.4652L44.0788 49.0952H43.9936L41.6072 57ZM41.0107 52.696H47.0192V54.9119H41.0107V52.696ZM50.7119 46.0909H54.398L56.9335 52.2699H57.0613L59.5969 46.0909H63.2829V57H60.3852V50.6932H60.3L57.871 56.9148H56.1238L53.6949 50.6506H53.6096V57H50.7119V46.0909ZM70.5672 49.5C70.5388 49.1449 70.4056 48.8679 70.1677 48.669C69.9333 48.4702 69.5764 48.3707 69.097 48.3707C68.7916 48.3707 68.5413 48.408 68.346 48.4826C68.1542 48.5536 68.0122 48.6513 67.9198 48.7756C67.8275 48.8999 67.7796 49.0419 67.776 49.2017C67.7689 49.3331 67.792 49.4521 67.8453 49.5586C67.9021 49.6616 67.9909 49.7557 68.1116 49.8409C68.2323 49.9226 68.3868 49.9972 68.575 50.0646C68.7632 50.1321 68.9869 50.1925 69.2462 50.2457L70.1411 50.4375C70.7448 50.5653 71.2615 50.734 71.6911 50.9435C72.1208 51.1531 72.4724 51.3999 72.7458 51.6839C73.0193 51.9645 73.2199 52.2805 73.3477 52.6321C73.4791 52.9837 73.5466 53.3672 73.5502 53.7827C73.5466 54.5 73.3673 55.1072 73.0122 55.6044C72.657 56.1016 72.1492 56.4798 71.4887 56.739C70.8318 56.9982 70.0416 57.1278 69.1183 57.1278C68.1702 57.1278 67.3428 56.9876 66.6361 56.707C65.933 56.4265 65.3861 55.995 64.9955 55.4126C64.6084 54.8267 64.4131 54.0774 64.4095 53.1648H67.222C67.2398 53.4986 67.3232 53.7791 67.4724 54.0064C67.6215 54.2337 67.8311 54.4059 68.1009 54.5231C68.3744 54.6403 68.6993 54.6989 69.0757 54.6989C69.3918 54.6989 69.6563 54.6598 69.8694 54.5817C70.0825 54.5036 70.2441 54.3952 70.3541 54.2567C70.4642 54.1183 70.521 53.9602 70.5246 53.7827C70.521 53.6158 70.466 53.4702 70.3595 53.3459C70.2565 53.218 70.086 53.1044 69.8481 53.005C69.6102 52.902 69.2888 52.8061 68.884 52.7173L67.7973 52.483C66.8314 52.2734 66.0697 51.9237 65.5122 51.4336C64.9582 50.94 64.683 50.267 64.6865 49.4148C64.683 48.7223 64.8676 48.1168 65.2405 47.5984C65.6169 47.0763 66.1372 46.6697 66.8012 46.3786C67.4688 46.0874 68.2341 45.9418 69.097 45.9418C69.9777 45.9418 70.7394 46.0891 71.3822 46.3839C72.0249 46.6786 72.5203 47.0941 72.8683 47.6303C73.2199 48.163 73.3975 48.7862 73.401 49.5H70.5672ZM74.3785 48.4773V46.0909H83.86V48.4773H80.5787V57H77.6597V48.4773H74.3785ZM84.9746 57V46.0909H92.8368V48.4773H87.9363V50.3523H92.432V52.7386H87.9363V54.6136H92.8155V57H84.9746ZM94.3057 57V46.0909H99.0145C99.8241 46.0909 100.533 46.2383 101.14 46.533C101.747 46.8278 102.219 47.2521 102.557 47.8061C102.894 48.3601 103.063 49.0241 103.063 49.7983C103.063 50.5795 102.889 51.2383 102.541 51.7745C102.196 52.3107 101.712 52.7156 101.087 52.989C100.465 53.2624 99.7389 53.3991 98.9079 53.3991H96.0954V51.098H98.3113C98.6594 51.098 98.9559 51.0554 99.2009 50.9702C99.4495 50.8814 99.6395 50.7411 99.7709 50.5494C99.9058 50.3576 99.9733 50.1072 99.9733 49.7983C99.9733 49.4858 99.9058 49.2319 99.7709 49.0366C99.6395 48.8377 99.4495 48.6921 99.2009 48.5998C98.9559 48.5039 98.6594 48.456 98.3113 48.456H97.2673V57H94.3057ZM100.698 51.9929L103.425 57H100.208L97.5443 51.9929H100.698ZM108.523 57H104.325V46.0909H108.48C109.602 46.0909 110.572 46.3093 111.388 46.7461C112.209 47.1793 112.841 47.8043 113.285 48.6211C113.732 49.4343 113.956 50.4091 113.956 51.5455C113.956 52.6818 113.734 53.6584 113.29 54.4751C112.846 55.2884 112.218 55.9134 111.404 56.3501C110.591 56.7834 109.631 57 108.523 57ZM107.287 54.4858H108.416C108.956 54.4858 109.416 54.3988 109.796 54.2248C110.179 54.0508 110.47 53.7507 110.669 53.3246C110.872 52.8984 110.973 52.3054 110.973 51.5455C110.973 50.7855 110.87 50.1925 110.664 49.7663C110.462 49.3402 110.163 49.0401 109.769 48.8661C109.378 48.6921 108.899 48.6051 108.331 48.6051H107.287V54.4858ZM117.472 57H114.275L117.876 46.0909H121.925L125.525 57H122.329L119.943 49.0952H119.858L117.472 57ZM116.875 52.696H122.883V54.9119H116.875V52.696ZM126.576 46.0909H130.262L132.798 52.2699H132.926L135.461 46.0909H139.147V57H136.249V50.6932H136.164L133.735 56.9148H131.988L129.559 50.6506H129.474V57H126.576V46.0909Z" fill="black"/>
</svg>
